<?xml version="1.0" encoding="UTF-8"?>
<svg width="752pt" height="752pt" version="1.1" viewBox="0 0 752 752" xmlns="http://www.w3.org/2000/svg">
 <g>
  <path d="m357.91 452.34 20.457 66.301h12.598l-5.4922-55.836c-9.6484-2.1211-18.938-5.6445-27.562-10.465z"/>
  <path d="m405.22 464.94 11.223 53.516h12.359l-7.1484-55.129c-5.4219 1.0039-10.922 1.543-16.434 1.6133z"/>
  <path d="m509.12 286.02c-1.9062 0.03125-3.8125-0.14453-5.6836-0.51953-1.3516-0.26562-2.4453-1.2539-2.8516-2.5703-0.40625-1.3164-0.058594-2.7461 0.91016-3.7266 2.9805-3.1094 6.1445-6.0352 9.4727-8.7617-3.0664-2.2539-6.4297-4.0703-9.9922-5.3984 0.023437 0.32812 0.023437 0.66016 0 0.99219-1 6.3398-6.3945 11.051-12.812 11.191-6.4141 0.14063-12.008-4.332-13.281-10.621-2.2539 1.3906-4.2539 3.1523-5.9219 5.207-4.6328 6.1016-6.1914 14.004-4.2148 21.406 0.28516 1.043 0.85156 2.7461 1.5156 4.7344 5.3047 15.961 19.418 58.344-16.953 85.625-33.152 24.816-92.348 31.73-140.84 32.773v0.51953c11.934 2.9375 22.211 6.6289 25.48 10.988 17.863 20.68 43.711 32.742 71.035 33.148 8.2461-0.023437 16.453-1.168 24.391-3.4102 48.777-13.734 93.77-55.691 90.738-106.79-2.5586-42.621-4.2148-55.457 1.3242-65.734v0.003907c-4.082 0.55469-8.1914 0.87109-12.312 0.94531zm-122.28 155.91h-3.8359c-4.7344 0-7.3398-1.0898-8.3359-3.3633-1.7539-3.8828 3.125-8.6211 4.1211-9.4727 0.34766-0.35938 0.82422-0.5625 1.3242-0.5625s0.98047 0.20312 1.3281 0.5625c0.71875 0.73828 0.71875 1.9141 0 2.6523-2.0352 1.8477-3.5977 4.4062-3.2188 5.2109 0 0 0.80469 1.6094 8.3828 0.89844h-0.003906c1.0469-0.09375 1.9688 0.68359 2.0586 1.7266 0.09375 1.0469-0.67969 1.9688-1.7266 2.0625zm25.051-16.859v-0.003906c-1.2773 0.066406-2.5586 0.066406-3.8359 0-4.7344 0-7.3398-1.0898-8.3828-3.3633-1.7031-3.8828 3.1719-8.6211 4.168-9.4727v0.003907c0.34766-0.35938 0.82812-0.5625 1.3281-0.5625 0.49609 0 0.97656 0.20312 1.3242 0.5625 0.72266 0.73828 0.72266 1.9141 0 2.6523-2.0352 1.8945-3.5977 4.4062-3.2188 5.2109 0 0 0.80469 1.6094 8.3359 0.89844h-0.003907c1.043-0.085938 1.9609 0.66797 2.0859 1.7031 0.14453 0.5625 0.023437 1.1602-0.32812 1.6211-0.34766 0.46094-0.89062 0.73828-1.4727 0.74609zm33.48 12.027c-1.4219 0-2.6992 0.23828-3.8359 0.23828-4.7344 0-7.3398-1.0898-8.3359-3.3633-1.7539-3.8828 3.125-8.6211 4.1211-9.4727h0.003906c0.73438-0.72266 1.9141-0.72266 2.6484 0 0.73047 0.75391 0.73047 1.9453 0 2.6992-2.0352 1.8477-3.5977 4.3555-3.2188 5.2109 0 0 0.80469 1.6094 8.3359 0.89844 0.50391-0.054688 1.0039 0.097656 1.3984 0.41797 0.39062 0.32031 0.63672 0.78516 0.68359 1.2852 0.070312 0.52344-0.089844 1.0469-0.43359 1.4453s-0.83984 0.63281-1.3633 0.64062zm16.812-30.734c-2.6367 1.2188-5.4805 1.9414-8.3789 2.1289-1.5703 0.11328-3.1055-0.5-4.168-1.6562-2.793-3.2188 0.51953-9.1406 1.2305-10.277 0.22266-0.49609 0.64453-0.87109 1.1602-1.0352 0.51953-0.16016 1.082-0.09375 1.5469 0.1875 0.46484 0.27734 0.78516 0.74609 0.88672 1.2773 0.097656 0.53516-0.039062 1.0859-0.375 1.5117-1.375 2.3203-2.1797 5.2109-1.6094 5.8711 0.56641 0.66406 1.2773 1.3242 8.2891-1.5156 0.96484-0.38672 2.0664 0.078126 2.4609 1.043 0.20312 0.46484 0.20312 0.98828 0.007813 1.457-0.19922 0.46484-0.57813 0.82813-1.0508 1.0078zm33.152-14.207c-2.7188 1.7578-5.8203 2.8477-9.0469 3.1719-1.2227 0.070312-2.4297-0.33594-3.3594-1.1367-3.125-2.8906-0.56641-9.1875 0-10.418 0.42969-0.95703 1.5547-1.3789 2.5078-0.94922 0.95703 0.43359 1.3789 1.5547 0.94922 2.5117-1.0898 2.5117-1.5156 5.4453-0.85156 6.0156 0.66406 0.56641 1.4219 1.1836 8.0508-2.5117h-0.003906c0.44531-0.29688 0.99219-0.39453 1.5117-0.26563 0.51563 0.125 0.95703 0.46484 1.2109 0.93359s0.30078 1.0234 0.125 1.5273-0.55469 0.91016-1.0469 1.1211zm3.5039-37.887c-2.6914 1.3359-5.6211 2.1406-8.6172 2.3672-1.4805 0.078126-2.9258-0.47266-3.9805-1.5156-2.8398-3.1719 0.28516-9.1875 0.94531-10.371h0.003907c0.51562-0.89453 1.6523-1.2109 2.5547-0.71094 0.44922 0.23047 0.78125 0.63281 0.92578 1.1172 0.14453 0.48047 0.082031 1.0039-0.16797 1.4414-1.3242 2.4141-2.0352 5.3047-1.4219 5.9688 0.61719 0.66406 1.2773 1.2773 8.1914-1.7539h0.003906c0.95312-0.43359 2.0781-0.007813 2.5117 0.94531 0.42969 0.95312 0.007813 2.0781-0.94922 2.5117zm1.0898-40.066c-2.3867 2.9453-5.7422 4.9453-9.4727 5.6367-0.71094-0.007813-1.4102-0.18359-2.0352-0.52344-3.7422-1.9414-2.8906-8.668-2.6992-9.9922 0.082031-0.49609 0.35547-0.9375 0.76562-1.2305 0.40625-0.29297 0.91797-0.41406 1.4141-0.33203 0.49219 0.011719 0.96094 0.22656 1.293 0.59375 0.33203 0.36719 0.49609 0.85547 0.45703 1.3477-0.42578 2.7461 0 5.6836 0.71094 6.0625 0 0 1.6562 0.80469 7.1055-4.4531 0.35156-0.37891 0.84375-0.59766 1.3594-0.60547 0.51953-0.007813 1.0195 0.19531 1.3828 0.56641 0.36328 0.36719 0.55859 0.87109 0.53906 1.3906-0.015624 0.51562-0.24219 1.0039-0.62891 1.3477z"/>
  <path d="m294.73 416.59c-26.047 0-44.754-1.6094-44.941-1.6094-1.3047-0.11328-2.457-0.90625-3.0312-2.082-13.641 6.8672-64.219 32.582-59.957 34.902 0.5 0.10547 1.0156 0.10547 1.5156 0 12.691 0 91.969-21.168 116.41-31.211l-0.61719-0.28516z"/>
  <path d="m463.05 362.5c-33.066 15.145-69.008 22.977-105.37 22.969-20.199 0.23828-40.332-2.3438-59.816-7.6719-0.26562-0.085937-0.50781-0.23047-0.71094-0.42578-0.28516 0.23047-0.54297 0.50391-0.75781 0.80469-13.734 16.242-46.27 33.152-46.27 33.152s18.422 1.6094 44.609 1.6094c46.031 0 116.03-4.7344 152.3-32.156h0.003906c6.6055-4.8516 12.07-11.094 16.008-18.281z"/>
  <path d="m463.61 358.1c0.5-0.21484 1.0625-0.21484 1.5625 0 11.27-26.426-2.1328-55.977-4.0742-63.793h0.003907c-1.8047-6.2617-1.3008-12.961 1.418-18.879 2.7227-5.918 7.4766-10.664 13.402-13.371 2.3867-4.4453 7.082-7.1602 12.125-7.0078 4.3828-0.046875 8.5156 2.0352 11.082 5.5859 5.3438 1.5156 10.332 4.0781 14.68 7.5312 4.4219-3.7344 9.6367-6.4102 15.25-7.8164-3.125-10.988-11.648-26.805-39.07-26.805-26.805 0-54.273 36.324-63.934 48.02-9.0938 10.941-102.96 71.941-125.83 92.918 54.734 13.391 112.4 7.6094 163.39-16.383z"/>
  <path d="m488.05 258.79c-4.6445-0.53125-8.8555 2.7578-9.4727 7.3906 0.84766 4.4688 4.7578 7.707 9.3086 7.707s8.457-3.2383 9.3047-7.707c-0.58984-4.5078-4.6133-7.7578-9.1406-7.3906z"/>
  <path d="m538.2 263.62c-2.6914-0.019532-5.3789 0.12109-8.0508 0.42578-9.8984 1.1367-25.906 17.902-25.906 17.902 1.5625 0.30078 3.1484 0.44531 4.7383 0.42578 17.051 0 56.309-9.4727 56.309-9.4727-3.5547-7.293-16.719-9.2812-27.09-9.2812z"/>
 </g>
</svg>
